<?xml version="1.0" encoding="UTF-8" standalone="no"?>
<!DOCTYPE svg PUBLIC "-//W3C//DTD SVG 1.1//EN"
 "http://www.w3.org/Graphics/SVG/1.1/DTD/svg11.dtd">
<!-- Generated by graphviz version 2.43.0 (0)
 -->
<!-- Title: G Pages: 1 -->
<svg width="269pt" height="280pt"
 viewBox="0.00 0.00 269.00 280.37" xmlns="http://www.w3.org/2000/svg" xmlns:xlink="http://www.w3.org/1999/xlink">
<g id="graph0" class="graph" transform="scale(1 1) rotate(0) translate(4 276.37)">
<title>G</title>
<polygon fill="white" stroke="transparent" points="-4,4 -4,-276.37 265,-276.37 265,4 -4,4"/>
<text text-anchor="start" x="12.5" y="-39" font-family="Times,serif" font-weight="bold" font-size="15.00">Network Discovery Diagram</text>
<text text-anchor="start" x="131.5" y="-25.6" font-family="Times,serif" font-size="13.00">2022&#45;04&#45;06 23:43</text>
<text text-anchor="start" x="155.5" y="-17.4" font-family="Times,serif" font-size="7.00">Generated by Nets 0.12.1</text>
<text text-anchor="start" x="200.5" y="-10.4" font-family="Times,serif" font-size="7.00">Hamza Zahid</text>
<!-- R1. -->
<g id="node1" class="node">
<title>R1.</title>
<polygon fill="none" stroke="black" points="126.5,-272.37 34.5,-236.37 126.5,-200.37 218.5,-236.37 126.5,-272.37"/>
<text text-anchor="start" x="117" y="-243.37" font-family="Times,serif" font-weight="bold" font-size="10.00">R1.</text>
<text text-anchor="start" x="88.5" y="-234.17" font-family="Times,serif" font-size="9.00">192.168.58.130</text>
<text text-anchor="start" x="102" y="-225.17" font-family="Times,serif" font-size="9.00">67108896</text>
</g>
<!-- Router -->
<g id="node2" class="node">
<title>Router</title>
<ellipse fill="none" stroke="black" cx="126.5" cy="-96.18" rx="65.11" ry="38.37"/>
<text text-anchor="start" x="107" y="-112.18" font-family="Times,serif" font-weight="bold" font-size="10.00">Router</text>
<text text-anchor="start" x="88.5" y="-102.98" font-family="Times,serif" font-size="9.00">192.168.58.129</text>
<text text-anchor="start" x="106" y="-93.98" font-family="Times,serif" font-size="9.00">15.4(2)T</text>
<text text-anchor="start" x="100.5" y="-84.98" font-family="Times,serif" font-size="9.00">Linux Unix</text>
<text text-anchor="start" x="114" y="-75.98" font-family="Times,serif" font-size="9.00">None</text>
</g>
<!-- R1.&#45;&#45;Router -->
<g id="edge1" class="edge">
<title>R1.&#45;&#45;Router</title>
<path fill="none" stroke="red" stroke-width="2" d="M126.5,-200.14C126.5,-183.35 126.5,-163.02 126.5,-144.87"/>
<polygon fill="red" stroke="red" stroke-width="2" points="130,-144.77 126.5,-134.77 123,-144.77 130,-144.77"/>
<text text-anchor="middle" x="176.5" y="-175.17" font-family="Times,serif" font-size="9.00">P:Et0/0</text>
<text text-anchor="middle" x="176.5" y="-165.17" font-family="Times,serif" font-size="9.00">C:Ethernet0/0</text>
<text text-anchor="middle" x="176.5" y="-155.17" font-family="Times,serif" font-size="9.00">P:192.168.58.130/24</text>
</g>
</g>
</svg>
